<?xml version="1.0" standalone="no"?>
<!DOCTYPE svg PUBLIC "-//W3C//DTD SVG 20010904//EN"
 "http://www.w3.org/TR/2001/REC-SVG-20010904/DTD/svg10.dtd">
<svg version="1.0" xmlns="http://www.w3.org/2000/svg"
 width="600.000000pt" height="335.000000pt" viewBox="0 0 600.000000 335.000000"
 preserveAspectRatio="xMidYMid meet">

<g transform="translate(0.000000,335.000000) scale(0.100000,-0.100000)"
fill="#000000" stroke="none">
<path d="M4693 2570 c-84 -51 -95 -166 -23 -235 39 -37 117 -46 167 -20 97 53
97 196 1 255 -42 25 -104 26 -145 0z"/>
<path d="M2025 2478 c-3 -7 -4 -310 -3 -673 l3 -660 452 -3 453 -2 5 22 c3 13
5 59 3 103 l-3 80 -340 5 -340 5 -3 568 -2 567 -110 0 c-79 0 -112 -4 -115
-12z"/>
<path d="M503 2459 c-64 -25 -137 -94 -165 -156 -22 -49 -34 -146 -24 -186 6
-24 7 -24 43 -11 29 10 125 13 409 14 l371 0 61 -31 c66 -32 110 -78 143 -146
12 -24 24 -43 28 -43 19 0 90 74 116 121 27 49 30 62 30 149 0 87 -3 100 -30
149 -37 66 -92 115 -162 141 -50 19 -77 20 -411 19 -333 0 -361 -1 -409 -20z"/>
<path d="M5384 2175 c-250 -54 -399 -272 -381 -560 13 -220 132 -397 313 -465
105 -39 290 -42 392 -6 143 51 261 197 287 354 l7 43 -112 -3 -111 -3 -17 -50
c-24 -70 -55 -110 -110 -142 -41 -25 -57 -28 -132 -28 -99 0 -144 19 -203 84
-69 76 -92 157 -85 291 8 141 65 237 168 283 58 27 159 28 223 3 59 -22 123
-93 141 -155 l13 -46 113 -3 113 -3 -7 41 c-21 130 -116 265 -228 321 -112 56
-253 73 -384 44z"/>
<path d="M4407 2159 c-80 -19 -154 -71 -202 -142 l-33 -48 -13 93 -14 93 -87
3 -88 3 0 -511 0 -511 108 3 107 3 5 295 5 295 29 58 c19 40 43 69 75 93 56
41 93 53 189 61 l72 6 0 108 0 109 -57 -1 c-32 -1 -75 -5 -96 -10z"/>
<path d="M2833 2148 c7 -19 124 -315 253 -643 147 -374 143 -365 166 -365 22
0 22 2 2 -46 -54 -132 -73 -143 -241 -144 l-113 0 0 -95 0 -95 128 0 c70 0
152 6 183 14 115 27 195 98 234 210 10 28 28 78 41 111 21 54 166 446 249 670
66 178 134 360 140 378 7 16 -2 17 -109 17 -101 0 -117 -2 -125 -18 -5 -10
-37 -94 -71 -187 -188 -515 -205 -560 -213 -548 -6 9 -159 412 -233 613 -19
52 -39 105 -44 118 -9 21 -15 22 -131 22 -93 0 -120 -3 -116 -12z"/>
<path d="M4655 2148 c-3 -7 -4 -236 -3 -508 l3 -495 113 -3 112 -3 0 511 0
510 -110 0 c-79 0 -112 -4 -115 -12z"/>
<path d="M255 2039 c-63 -58 -98 -136 -99 -221 -1 -36 2 -70 6 -74 5 -4 25 -2
47 4 26 8 156 12 407 12 l369 0 53 -25 c61 -28 113 -80 148 -148 l25 -48 -38
-17 c-34 -15 -80 -17 -413 -17 l-375 0 -57 28 c-64 32 -107 75 -143 148 l-26
50 -38 -30 c-185 -147 -149 -433 67 -534 46 -21 58 -22 417 -22 l370 0 56 26
c116 55 183 160 184 291 l0 76 45 40 c25 22 59 64 75 93 25 46 29 65 30 131 0
42 -2 79 -5 82 -3 3 -29 -2 -57 -10 -42 -12 -114 -14 -410 -12 -342 3 -360 4
-404 24 -59 28 -119 87 -148 147 -13 26 -27 47 -32 47 -5 0 -29 -18 -54 -41z"/>
</g>
</svg>
