<?xml version="1.0" standalone="no"?>
<!DOCTYPE svg PUBLIC "-//W3C//DTD SVG 20010904//EN"
 "http://www.w3.org/TR/2001/REC-SVG-20010904/DTD/svg10.dtd">
<svg version="1.0" xmlns="http://www.w3.org/2000/svg"
 width="512.000000pt" height="512.000000pt" viewBox="0 0 512.000000 512.000000"
 preserveAspectRatio="xMidYMid meet">

<g transform="translate(0.000000,512.000000) scale(0.100000,-0.100000)"
fill="#000000" stroke="none">
<path d="M1732 4730 c-31 -29 -38 -66 -19 -105 14 -29 28 -37 139 -78 93 -34
118 -47 103 -52 -114 -41 -265 -105 -331 -141 -505 -272 -867 -731 -1002
-1270 -55 -218 -53 -262 14 -290 29 -12 39 -12 68 0 18 8 37 19 41 25 3 7 17
64 30 129 113 551 466 1012 970 1265 103 51 283 122 292 114 2 -2 -13 -46 -32
-98 -43 -117 -44 -142 -5 -181 27 -26 36 -30 67 -25 20 4 45 14 54 24 27 28
180 459 173 487 -3 13 -15 33 -27 44 -29 25 -437 172 -480 172 -20 0 -42 -8
-55 -20z"/>
<path d="M2849 4545 c-38 -20 -52 -67 -35 -110 18 -42 31 -49 136 -70 182 -37
410 -128 578 -233 294 -183 535 -453 683 -767 44 -94 124 -323 116 -331 -2 -2
-44 18 -93 46 -104 59 -147 64 -184 25 -33 -35 -32 -88 1 -119 13 -13 110 -72
214 -131 205 -117 245 -129 284 -90 35 36 251 423 251 451 0 36 -50 84 -89 84
-44 0 -75 -33 -141 -149 l-58 -104 -12 44 c-88 344 -271 661 -524 914 -265
263 -614 454 -983 535 -104 23 -110 23 -144 5z"/>
<path d="M2350 3819 c-97 -44 -132 -103 -138 -234 -2 -49 -9 -96 -14 -102 -22
-28 -60 -14 -119 42 -32 31 -74 62 -93 70 -46 19 -137 19 -183 0 -49 -21 -260
-229 -284 -280 -23 -49 -24 -133 -4 -182 9 -20 42 -65 75 -99 33 -34 60 -69
60 -76 0 -35 -24 -46 -117 -51 -140 -7 -212 -51 -249 -154 -18 -52 -18 -334 0
-386 37 -103 109 -147 249 -154 93 -5 117 -16 117 -51 0 -7 -27 -42 -60 -76
-70 -73 -90 -116 -90 -188 1 -82 26 -122 157 -250 103 -100 127 -118 173 -132
66 -20 64 -20 128 -1 38 12 69 32 116 75 64 61 102 75 124 48 5 -7 12 -53 14
-103 6 -124 38 -183 123 -228 37 -20 55 -22 225 -22 170 0 188 2 225 22 85 45
117 104 123 228 2 50 9 96 14 103 22 27 60 13 124 -48 47 -43 78 -63 116 -75
64 -19 62 -19 128 1 46 14 70 32 173 132 131 128 156 168 157 250 0 72 -20
115 -90 188 -33 34 -60 69 -60 76 0 35 24 46 117 51 140 7 212 51 249 154 18
52 18 334 0 386 -37 103 -109 147 -249 154 -93 5 -117 16 -117 51 0 7 27 42
60 76 69 72 90 115 90 186 0 79 -22 116 -143 239 -126 127 -165 150 -250 151
-76 0 -116 -18 -186 -85 -59 -56 -97 -70 -119 -42 -5 6 -12 53 -14 102 -6 131
-41 190 -138 234 -39 18 -65 21 -210 21 -145 0 -171 -3 -210 -21z m364 -175
c12 -11 16 -36 16 -99 0 -71 4 -90 28 -136 37 -71 100 -111 182 -117 82 -6
124 11 201 84 38 35 76 64 85 64 9 0 61 -44 115 -97 72 -70 99 -103 99 -121 0
-16 -21 -47 -63 -92 -92 -97 -109 -179 -58 -278 44 -86 112 -122 228 -122 122
0 123 -1 123 -170 0 -169 -1 -170 -123 -170 -116 0 -184 -36 -228 -122 -51
-99 -34 -181 58 -278 42 -45 63 -76 63 -92 0 -18 -27 -51 -99 -121 -54 -53
-106 -97 -115 -97 -9 0 -47 29 -85 64 -77 73 -119 90 -201 84 -82 -6 -145 -46
-182 -117 -24 -46 -28 -65 -28 -136 0 -116 2 -115 -170 -115 -172 0 -170 -1
-170 115 0 71 -4 90 -28 136 -39 75 -100 112 -192 117 -83 5 -112 -8 -197 -89
-34 -33 -69 -59 -79 -59 -9 0 -61 44 -115 97 -72 70 -99 103 -99 121 0 16 21
47 63 92 92 97 109 179 58 278 -44 86 -112 122 -228 122 -122 0 -123 1 -123
170 0 169 1 170 123 170 116 0 184 36 228 122 51 99 34 181 -58 278 -42 45
-63 76 -63 92 0 18 27 51 99 121 54 53 106 97 115 97 9 0 47 -29 85 -64 77
-73 119 -90 201 -84 82 6 145 46 182 117 24 46 28 65 28 136 0 116 -2 115 170
115 113 0 142 -3 154 -16z"/>
<path d="M2446 3044 c-226 -55 -386 -255 -386 -484 0 -134 47 -247 145 -346
198 -201 507 -203 705 -4 103 102 150 213 150 350 0 137 -47 248 -150 350
-125 125 -296 175 -464 134z m262 -205 c232 -118 228 -446 -6 -561 -164 -81
-353 -15 -433 150 -26 54 -35 147 -20 209 16 64 72 147 122 180 110 73 223 80
337 22z"/>
<path d="M632 2478 c-25 -12 -289 -366 -306 -410 -14 -38 2 -78 41 -101 56
-32 90 -13 172 100 l70 95 11 -44 c57 -216 135 -398 249 -578 111 -176 316
-397 486 -525 205 -153 453 -273 695 -335 105 -27 126 -26 161 9 57 57 27 128
-62 151 -566 142 -996 490 -1238 1001 -49 103 -104 258 -117 326 l-7 35 99
-71 c81 -58 105 -71 137 -71 72 0 114 81 69 136 -17 21 -276 212 -361 266 -48
30 -64 33 -99 16z"/>
<path d="M4400 2432 c-17 -14 -27 -46 -49 -157 -35 -177 -84 -322 -157 -466
-186 -372 -481 -663 -851 -839 -85 -41 -283 -113 -283 -104 0 3 27 38 61 77
89 105 95 128 50 179 -23 26 -36 32 -65 31 -20 -1 -43 -7 -52 -13 -8 -7 -82
-93 -164 -192 -126 -150 -150 -184 -150 -211 0 -17 8 -41 18 -53 15 -18 270
-233 346 -292 56 -43 130 -21 150 44 12 38 -12 71 -109 155 l-97 82 79 23
c688 199 1230 776 1388 1479 14 65 27 143 28 172 2 49 -1 57 -26 79 -34 29
-85 32 -117 6z"/>
</g>
</svg>
