<?xml version="1.0" standalone="no"?>
<!DOCTYPE svg PUBLIC "-//W3C//DTD SVG 20010904//EN"
 "http://www.w3.org/TR/2001/REC-SVG-20010904/DTD/svg10.dtd">
<svg version="1.0" xmlns="http://www.w3.org/2000/svg"
 width="512.000000pt" height="512.000000pt" viewBox="0 0 512.000000 512.000000"
 preserveAspectRatio="xMidYMid meet">

<g transform="translate(0.000000,512.000000) scale(0.100000,-0.100000)"
fill="#000000" stroke="none">
<path d="M1555 5106 c-84 -21 -147 -57 -211 -121 -65 -65 -105 -136 -123 -223
-8 -37 -11 -318 -11 -910 l0 -858 100 4 c211 9 454 -35 664 -119 209 -83 400
-211 568 -381 l97 -98 826 0 c808 0 827 0 865 -20 45 -23 80 -80 80 -130 0
-50 -35 -107 -80 -130 -38 -20 -57 -20 -768 -20 l-730 0 38 -88 c64 -149 109
-311 126 -455 l7 -57 644 0 c625 0 645 -1 683 -20 45 -23 80 -80 80 -130 0
-50 -35 -107 -80 -130 -38 -19 -58 -20 -683 -20 l-643 0 -13 -91 c-57 -404
-297 -817 -615 -1057 l-69 -52 1196 0 c842 0 1212 3 1249 11 170 36 311 178
347 347 8 38 11 547 11 1757 l0 1705 -591 0 -591 0 -40 22 c-24 14 -48 38 -59
60 -18 35 -19 68 -19 628 l0 590 -1102 -1 c-847 -1 -1115 -4 -1153 -13z m2775
-1826 c45 -23 80 -80 80 -130 0 -50 -35 -107 -80 -130 -39 -20 -56 -20 -1171
-20 l-1131 0 -40 22 c-101 57 -102 194 -2 254 l39 24 1133 0 c1116 0 1133 0
1172 -20z"/>
<path d="M4110 4575 l0 -455 457 0 458 0 -455 455 c-250 250 -456 455 -457
455 -2 0 -3 -205 -3 -455z"/>
<path d="M1220 2694 c-322 -40 -591 -171 -815 -398 -199 -201 -313 -415 -372
-696 -24 -118 -24 -382 0 -500 59 -281 174 -496 372 -696 201 -203 421 -322
705 -381 117 -24 380 -24 502 0 270 54 494 174 694 372 202 199 322 421 381
705 24 118 24 382 0 500 -39 185 -110 356 -212 510 -63 95 -258 291 -351 352
-161 107 -335 180 -506 213 -81 16 -328 28 -398 19z m700 -944 c45 -23 80 -80
80 -130 0 -17 -9 -47 -19 -68 -24 -46 -724 -744 -768 -766 -43 -21 -86 -20
-131 3 -45 24 -344 324 -366 368 -61 122 75 258 197 197 18 -9 78 -62 135
-117 l102 -102 303 302 c166 165 316 308 332 317 41 21 88 20 135 -4z"/>
</g>
</svg>
